<mxfile host="Electron" modified="2023-12-05T00:46:19.327Z" agent="Mozilla/5.0 (Windows NT 10.0; Win64; x64) AppleWebKit/537.36 (KHTML, like Gecko) draw.io/22.1.2 Chrome/114.0.5735.289 Electron/25.9.4 Safari/537.36" etag="JTzIDz_pBer13CkBf2NZ" version="22.1.2" type="device">
  <diagram name="Page-1" id="sPngznCx4X6TvejuiXkM">
    <mxGraphModel dx="1420" dy="830" grid="1" gridSize="10" guides="1" tooltips="1" connect="1" arrows="1" fold="1" page="1" pageScale="1" pageWidth="850" pageHeight="1100" math="0" shadow="0">
      <root>
        <mxCell id="0" />
        <mxCell id="1" parent="0" />
        <mxCell id="o2Bm0cEtrIqw7_hYOtmg-17" value="" style="rounded=1;whiteSpace=wrap;html=1;" vertex="1" parent="1">
          <mxGeometry x="110" y="418" width="330" height="202" as="geometry" />
        </mxCell>
        <mxCell id="o2Bm0cEtrIqw7_hYOtmg-13" value="" style="rounded=0;whiteSpace=wrap;html=1;" vertex="1" parent="1">
          <mxGeometry x="130" y="440" width="230" height="170" as="geometry" />
        </mxCell>
        <mxCell id="o2Bm0cEtrIqw7_hYOtmg-2" value="" style="shape=image;verticalLabelPosition=bottom;labelBackgroundColor=default;verticalAlign=top;aspect=fixed;imageAspect=0;image=data:image/svg+xml,PHN2ZyB4bWxucz0iaHR0cDovL3d3dy53My5vcmcvMjAwMC9zdmciIHZpZXdCb3g9IjAgMCAxOCAxOCIgaGVpZ2h0PSIxOCIgd2lkdGg9IjE4Ij48ZGVmcz48bGluZWFyR3JhZGllbnQgZ3JhZGllbnRVbml0cz0idXNlclNwYWNlT25Vc2UiIHkyPSIxMy4wOTkiIHgyPSIxMS43MjkiIHkxPSI0Ljg4IiB4MT0iMTEuNzI5IiBpZD0iYTNhNDQwOTMtYjE1Ny00MjZlLWE4ZmUtY2VjOWY5YzIzOTc4Ij48c3RvcCBzdG9wLWNvbG9yPSIjNzczYWRjIiBvZmZzZXQ9IjAuMDAxIi8+PHN0b3Agc3RvcC1jb2xvcj0iIzY2MzViYiIgb2Zmc2V0PSIwLjUyOCIvPjxzdG9wIHN0b3AtY29sb3I9IiM1NTJmOTkiIG9mZnNldD0iMSIvPjwvbGluZWFyR3JhZGllbnQ+PGxpbmVhckdyYWRpZW50IGdyYWRpZW50VW5pdHM9InVzZXJTcGFjZU9uVXNlIiB5Mj0iNC4xOTgiIHgyPSI2LjM1IiB5MT0iMTMuOTE0IiB4MT0iNi4zNSIgaWQ9ImFkODM4ODU5LTAzZjQtNDcyZi04MWJjLWViYzkyMWQ3MTMzNSI+PHN0b3Agc3RvcC1jb2xvcj0iIzc3M2FkYyIgb2Zmc2V0PSIwLjAwMSIvPjxzdG9wIHN0b3AtY29sb3I9IiM3OTNkZGQiIG9mZnNldD0iMC4zMDciLz48c3RvcCBzdG9wLWNvbG9yPSIjODA0NmUxIiBvZmZzZXQ9IjAuNTMyIi8+PHN0b3Agc3RvcC1jb2xvcj0iIzhjNTZlNyIgb2Zmc2V0PSIwLjczMSIvPjxzdG9wIHN0b3AtY29sb3I9IiM5YzZkZWYiIG9mZnNldD0iMC45MTUiLz48c3RvcCBzdG9wLWNvbG9yPSIjYTY3YWY0IiBvZmZzZXQ9IjEiLz48L2xpbmVhckdyYWRpZW50PjwvZGVmcz48ZyBpZD0iYWU4MjQ3MGQtN2E2Yy00ZGZlLTg1MzMtNTlkOGZmOTQ4NjI5Ij48Zz48cGF0aCBmaWxsPSIjOTQ5NDk0IiBkPSJNOC42MTcsOC42NDRILjYzOVYxLjc4NEExLjE2LDEuMTYsMCwwLDEsMS43ODguNjI0SDguNjE3Wk0xLjYzLDcuNjUzaDZWMS41OTRIMS43ODhhLjE1OC4xNTgsMCwwLDAtLjE1OC4xNThoMFoiLz48cGF0aCBmaWxsPSIjOTQ5NDk0IiBkPSJNMTcuNSw4LjY0NEg5LjUyM1YuNjI0aDYuODI4QTEuMTYsMS4xNiwwLDAsMSwxNy41LDEuNzg0Wm0tNi45ODctLjk5MWg2VjEuNzg0YS4xNTcuMTU3LDAsMCwwLS4xMjMtLjE4Ny4yLjIsMCwwLDAtLjAzNSwwSDEwLjUxM1oiLz48cGF0aCBmaWxsPSIjOTQ5NDk0IiBkPSJNOC42MTcsMTcuNDg1SDEuNzg4QTEuMTQ5LDEuMTQ5LDAsMCwxLC42MzksMTYuMzQ3VjkuNDc2SDguNjE3Wk0xLjYzLDEwLjQ2N3Y1Ljg4YS4xNTguMTU4LDAsMCwwLC4xNTguMTU4SDcuNjI2VjEwLjQ2N1oiLz48cGF0aCBmaWxsPSIjOTQ5NDk0IiBkPSJNMTYuMzUxLDE3LjQ4NUg5LjUyM1Y5LjQ3NkgxNy41djYuODcxQTEuMTQ5LDEuMTQ5LDAsMCwxLDE2LjM1MSwxNy40ODVabS01LjgzOC0uOTkxaDUuODM4YS4xNTcuMTU3LDAsMCwwLC4xNTgtLjE1OFYxMC40NjdoLTZaIi8+PHBhdGggZmlsbD0idXJsKCNhM2E0NDA5My1iMTU3LTQyNmUtYThmZS1jZWM5ZjljMjM5NzgpIiBkPSJNMTQuNiw2LjI5NGEuMjk0LjI5NCwwLDAsMC0uMi0uMjc4TDkuMDQ0LDQuMjA1QS4xMjguMTI4LDAsMCwwLDksNC4ySDlhLjEzMi4xMzIsMCwwLDAtLjEzMy4xMzN2OS40NDVBLjEzMy4xMzMsMCwwLDAsOSwxMy45MTFIOWEuMTM4LjEzOCwwLDAsMCwuMDQ5LS4wMWw1LjM2NS0yLjE0NWEuMjkyLjI5MiwwLDAsMCwuMTg0LS4yNzJaIi8+PHBhdGggZmlsbD0idXJsKCNhZDgzODg1OS0wM2Y0LTQ3MmYtODFiYy1lYmM5MjFkNzEzMzUpIiBkPSJNOC45NjYsNC4ybC01LjI5My45NjZhLjE2MS4xNjEsMCwwLDAtLjEzLjE1OFYxMi42M2EuMTYuMTYsMCwwLDAsLjEyNi4xNTdMOC45NjIsMTMuOTFhLjE2MS4xNjEsMCwwLDAsLjE5MS0uMTIxLjIyLjIyLDAsMCwwLDAtLjAzNlY0LjM1OEEuMTYuMTYsMCwwLDAsOSw0LjIuMTYzLjE2MywwLDAsMCw4Ljk2Niw0LjJaIi8+PHBhdGggb3BhY2l0eT0iMC41IiBmaWxsPSIjYjc5NmY5IiBkPSJNNi41Miw1LjY1NnY2LjhsMS44NDIuM1Y1LjMzNVptLTIuMjYyLjM2N3Y1Ljk1NWwxLjYuMzI2VjUuNzU0WiIvPjwvZz48L2c+PC9zdmc+;" vertex="1" parent="1">
          <mxGeometry x="140" y="450" width="18" height="18" as="geometry" />
        </mxCell>
        <mxCell id="o2Bm0cEtrIqw7_hYOtmg-5" value="Container App Environmet" style="text;html=1;align=center;verticalAlign=middle;resizable=0;points=[];autosize=1;strokeColor=none;fillColor=none;" vertex="1" parent="1">
          <mxGeometry x="158" y="444" width="160" height="30" as="geometry" />
        </mxCell>
        <mxCell id="o2Bm0cEtrIqw7_hYOtmg-6" value="" style="rounded=0;whiteSpace=wrap;html=1;" vertex="1" parent="1">
          <mxGeometry x="140" y="470" width="210" height="120" as="geometry" />
        </mxCell>
        <mxCell id="o2Bm0cEtrIqw7_hYOtmg-1" value="" style="shape=image;verticalLabelPosition=bottom;labelBackgroundColor=default;verticalAlign=top;aspect=fixed;imageAspect=0;image=data:image/svg+xml,PHN2ZyB4bWxucz0iaHR0cDovL3d3dy53My5vcmcvMjAwMC9zdmciIHZpZXdCb3g9IjAgMCAxOCAxOCIgaGVpZ2h0PSIxOCIgd2lkdGg9IjE4IiBpZD0idXVpZC1iMjU5NzM4Yi0zNDQ5LTRjMDEtYjU0Zi1kMWY1MjVkNzhhYzAiPiYjeGE7ICA8ZGVmcz4mI3hhOyAgICA8bGluZWFyR3JhZGllbnQgZ3JhZGllbnRVbml0cz0idXNlclNwYWNlT25Vc2UiIHkyPSI4LjEwNCIgeDI9IjE0LjY4MyIgeTE9IjguMTA0IiB4MT0iOC43OTgiIGlkPSJ1dWlkLTVlNmJkZmE0LWJmMzMtNDQ2OS1hYmNhLTIxMGZiMzFhYjNiOSI+JiN4YTsgICAgICA8c3RvcCBzdG9wLWNvbG9yPSIjNzczYWRjIiBvZmZzZXQ9Ii4wMDEiLz4mI3hhOyAgICAgIDxzdG9wIHN0b3AtY29sb3I9IiM1NTJmOTkiIG9mZnNldD0iMSIvPiYjeGE7ICAgIDwvbGluZWFyR3JhZGllbnQ+JiN4YTsgICAgPGxpbmVhckdyYWRpZW50IGdyYWRpZW50VW5pdHM9InVzZXJTcGFjZU9uVXNlIiB5Mj0iMy4wMjQiIHgyPSI1Ljc2NSIgeTE9IjEzLjAyNiIgeDE9IjUuNzY1IiBpZD0idXVpZC05YWYxYWNiMS0xZmMwLTRhZDgtYjBhOC1kMGVjODg5Nzc2YTEiPiYjeGE7ICAgICAgPHN0b3Agc3RvcC1jb2xvcj0iIzc3M2FkYyIgb2Zmc2V0PSIwIi8+JiN4YTsgICAgICA8c3RvcCBzdG9wLWNvbG9yPSIjYTY3YWY0IiBvZmZzZXQ9IjEiLz4mI3hhOyAgICA8L2xpbmVhckdyYWRpZW50PiYjeGE7ICAgIDxsaW5lYXJHcmFkaWVudCBncmFkaWVudFVuaXRzPSJ1c2VyU3BhY2VPblVzZSIgZ3JhZGllbnRUcmFuc2Zvcm09InRyYW5zbGF0ZSgwIDc5MS41MTYpIHNjYWxlKDEgLTEpIiB5Mj0iNzgzLjUzNSIgeDI9IjEyLjY1OSIgeTE9Ijc3Ni4yMTQiIHgxPSIxMi42NTkiIGlkPSJ1dWlkLTNjZjI0OTJhLWYzM2MtNGQ2ZS1hNGRlLWIyM2E4NTliZjhmMiI+JiN4YTsgICAgICA8c3RvcCBzdG9wLWNvbG9yPSIjMzJiZWRkIiBvZmZzZXQ9IjAiLz4mI3hhOyAgICAgIDxzdG9wIHN0b3AtY29sb3I9IiMzMmNlZWYiIG9mZnNldD0iLjU3NiIvPiYjeGE7ICAgICAgPHN0b3Agc3RvcC1jb2xvcj0iIzMyZDRmNSIgb2Zmc2V0PSIxIi8+JiN4YTsgICAgPC9saW5lYXJHcmFkaWVudD4mI3hhOyAgPC9kZWZzPiYjeGE7ICA8Zz4mI3hhOyAgICA8Zz4mI3hhOyAgICAgIDxnIGlkPSJ1dWlkLTliYmMyMzI2LTUzNDUtNDM2Zi1hYzEwLWJhMjM3MjY3ZmYxZSI+JiN4YTsgICAgICAgIDxwYXRoIGZpbGw9IiNhNjdhZjQiIGQ9Im0xLjEwMSw1LjA2OGwxLjIxLS4yM3Y2LjU1bC0xLjIzLS4yNy0uOTktLjIyYy0uMDU3LS4wMTEtLjA5Ni0uMDYzLS4wOS0uMTJ2LTUuNGMtLjAwMi0uMDU2LjAzNi0uMTA2LjA5LS4xMmwxLjAxLS4xOVoiLz4mI3hhOyAgICAgIDwvZz4mI3hhOyAgICAgIDxnPiYjeGE7ICAgICAgICA8ZyBpZD0idXVpZC1kMzNjN2VjMC1jOTY3LTQ3NGYtOTY4ZC00N2EyNTMxNzM4ZDEiPiYjeGE7ICAgICAgICAgIDxnPiYjeGE7ICAgICAgICAgICAgPHBhdGggZmlsbD0idXJsKCN1dWlkLTVlNmJkZmE0LWJmMzMtNDQ2OS1hYmNhLTIxMGZiMzFhYjNiOSkiIGQ9Im05Ljg3LDEyLjk3N2wtLjExNi0uMjgzLS43NDQtLjI0NC0uMDA3LS4wMDItLjAwNy0uMDAzLS4xMTctLjA0NC0uMjIzLS4wODR2LTEuMzE1bC4yMjgtLjA4Mi43Ni0uMjcydi0uNzk1bC0uMTE2LS4yMjgtLjA1OS0uMTE3LS4xMTEtLjIyMS4xNzUtLjE3NS4xMS0uMTF2LTMuNjI1Yy4wMDUtLjI2LjE4Ny0uNDgzLjQ0LS41NGwzLjA1LS41Ny00LjQ2LTEuNTZjLS4wMTUtLjAwOC0uMDMzLS4wMTItLjA1LS4wMS0uMDgyLjAwMi0uMTQ4LjA2OC0uMTUuMTV2MTAuNTEyYy4wMDIuMDgyLjA2OC4xNDguMTUuMTUuMDIsMCwuMDMtLjAxLjA1LS4wMWwxLjE4Mi0uNDkuMDE2LS4wMzNaIi8+JiN4YTsgICAgICAgICAgICA8cGF0aCBmaWxsPSJ1cmwoI3V1aWQtOWFmMWFjYjEtMWZjMC00YWQ4LWIwYTgtZDBlYzg4OTc3NmExKSIgZD0ibTguNjU1LDEyLjMxOXYtMS4zMTVsLjEzNi0uMDQ5VjIuODc4Yy4wMDItLjA5Ny0uMDc1LS4xNzYtLjE3Mi0uMTc4aC0uMDMzbC01LjcwOCwxLjA3OGMtLjA4Mi4wMTgtLjE0MS4wOTEtLjE0LjE3NXY4LjEyN2MwLC4wODMuMDU2LjE1NS4xMzcuMTc0bDUuNzA2LDEuMjQ2Yy4wOTUuMDE5LjE4OC0uMDQzLjIwNy0uMTM5LjAwMi0uMDEyLjAwMy0uMDIzLjAwMy0uMDM1di0uOTU2bC0uMTM2LS4wNTFaIi8+JiN4YTsgICAgICAgICAgPC9nPiYjeGE7ICAgICAgICA8L2c+JiN4YTsgICAgICAgIDxwb2x5Z29uIG9wYWNpdHk9Ii41IiBmaWxsPSIjYjc5NmY5IiBwb2ludHM9IjUuOTQ4IDQuMzIxIDUuOTQ4IDExLjg4MyA3LjkzNCAxMi4yMTQgNy45MzQgMy45NjQgNS45NDggNC4zMjEiLz4mI3hhOyAgICAgICAgPHBvbHlnb24gb3BhY2l0eT0iLjUiIGZpbGw9IiNiNzk2ZjkiIHBvaW50cz0iMy41MDkgNC43MjkgMy41MDkgMTEuMzU0IDUuMjM4IDExLjcxNyA1LjIzOCA0LjQzMSAzLjUwOSA0LjcyOSIvPiYjeGE7ICAgICAgPC9nPiYjeGE7ICAgIDwvZz4mI3hhOyAgICA8cGF0aCBmaWxsPSIjNzczYWRjIiBkPSJtMTcuODUsNS44ODJsLS44LS4yODItMy4wMTktMS4wNDZoLS4wMjNjLS4wMS0uMDA2LS4wMjItLjAwOS0uMDM0LS4wMDgtLjAwNi0uMDAyLS4wMTMtLjAwMi0uMDE5LDBoLS4wMTljLS4wMzMuMDE3LS4wNTQuMDUxLS4wNTQuMDg4djQuMTc0bC4wOTUuMDM5LjY5NC0uMzUzLjExNy0uMDU5LjIyMS0uMTExLjE3NS4xNzUuNTg2LjU4Ni4xNzEuMTcxLS4xMDMuMjE4LS4zOS44My4xMTYuMjgzLjY2OS4yMTkuODY2LS4zNTguNzY2LS4zMTZjLjA4LS4wMzUuMTMyLS4xMTMuMTMzLS4ydi0zLjg0NGMuMDAyLS4wOTUtLjA2LS4xNzktLjE1LS4yMDdaIi8+JiN4YTsgICAgPHBhdGggZmlsbD0iI2E2N2FmNCIgZD0ibTEwLjExNyw4LjUyOGwuMTcyLS4xNzIuMjE5LjEwNS44MTYuMzkuMjgyLS4xMTYuMjQ0LS43NDQuMDAyLS4wMDcuMDAzLS4wMDcuMDQ0LS4xMTcuMDg0LS4yMjNoMS4zMTNsLjA4Mi4yMjYuMzE2Ljg2OC4yODQuMTE3LjExNy0uMDZ2LTQuMTMyYzAtLjA2NC0uMDUxLS4xMTctLjExNS0uMTE4LS4wMDcsMC0uMDEzLDAtLjAyLjAwMmwtMy44LjcxNWMtLjA1NS4wMTItLjA5NC4wNjEtLjA5My4xMTd2My4yMDdsLjA1MS0uMDUxWiIvPiYjeGE7ICA8L2c+JiN4YTsgIDxwYXRoIGZpbGw9InVybCgjdXVpZC0zY2YyNDkyYS1mMzNjLTRkNmUtYTRkZS1iMjNhODU5YmY4ZjIpIiBkPSJtMTYuMzIsMTIuMDM3di0uODM1bC0uMTE3LS4wNDQtLjg5NS0uMjkzLS4yMzQtLjU2OS40NTQtLjk2Ni0uNTg2LS41ODYtLjExNy4wNTktLjgzMy40MjMtLjU2OS0uMjM0LS4zNjgtMS4wMWgtLjgzNWwtLjA0NC4xMTctLjI5My44OTUtLjU2OS4yMzQtLjk1My0uNDU2LS41ODYuNTg2LjA1OS4xMTcuNDI2LjgzNS0uMjM0LjU2OS0xLjAyNy4zNjh2LjgzNWwuMTE3LjA0NC44OTUuMjkzLjIzNC41NjktLjQ1Ni45NjguNTg2LjU4Ni4xMTctLjA1OS44MzUtLjQyNS41NjkuMjM0LjM2OCwxLjAxaC44MzVsLjA0NC0uMTE3LjI5My0uODk1LjU2OS0uMjM0Ljk2Ni40NTQuNTg2LS41ODYtLjA1OS0uMTE3LS40MjMtLjgzMy4yMzQtLjU2OSwxLjAxLS4zNjhabS0zLjY2MSwxLjIxMWMtLjg4NywwLTEuNjA3LS43MTktMS42MDctMS42MDdzLjcxOS0xLjYwNywxLjYwNy0xLjYwNywxLjYwNy43MTksMS42MDcsMS42MDdoMGMwLC44ODctLjcxOCwxLjYwNi0xLjYwNCwxLjYwNywwLDAtLjAwMiwwLS4wMDIsMFoiLz4mI3hhOzwvc3ZnPg==;" vertex="1" parent="1">
          <mxGeometry x="148" y="480" width="18" height="18" as="geometry" />
        </mxCell>
        <mxCell id="o2Bm0cEtrIqw7_hYOtmg-7" value="Container App Job" style="text;html=1;align=center;verticalAlign=middle;resizable=0;points=[];autosize=1;strokeColor=none;fillColor=none;" vertex="1" parent="1">
          <mxGeometry x="168" y="474" width="120" height="30" as="geometry" />
        </mxCell>
        <mxCell id="o2Bm0cEtrIqw7_hYOtmg-25" style="edgeStyle=orthogonalEdgeStyle;rounded=0;orthogonalLoop=1;jettySize=auto;html=1;startArrow=block;startFill=1;" edge="1" parent="1" source="o2Bm0cEtrIqw7_hYOtmg-8" target="o2Bm0cEtrIqw7_hYOtmg-22">
          <mxGeometry relative="1" as="geometry">
            <Array as="points">
              <mxPoint x="178" y="640" />
              <mxPoint x="192" y="640" />
            </Array>
          </mxGeometry>
        </mxCell>
        <mxCell id="o2Bm0cEtrIqw7_hYOtmg-8" value="" style="whiteSpace=wrap;html=1;aspect=fixed;fillColor=#dae8fc;strokeColor=#6c8ebf;" vertex="1" parent="1">
          <mxGeometry x="148" y="520" width="60" height="60" as="geometry" />
        </mxCell>
        <mxCell id="o2Bm0cEtrIqw7_hYOtmg-9" value="Selenium&lt;br&gt;Chrome" style="text;html=1;align=center;verticalAlign=middle;resizable=0;points=[];autosize=1;strokeColor=none;fillColor=none;" vertex="1" parent="1">
          <mxGeometry x="143" y="530" width="70" height="40" as="geometry" />
        </mxCell>
        <mxCell id="o2Bm0cEtrIqw7_hYOtmg-30" style="edgeStyle=orthogonalEdgeStyle;rounded=0;orthogonalLoop=1;jettySize=auto;html=1;startArrow=block;startFill=1;" edge="1" parent="1" source="o2Bm0cEtrIqw7_hYOtmg-10" target="o2Bm0cEtrIqw7_hYOtmg-9">
          <mxGeometry relative="1" as="geometry" />
        </mxCell>
        <mxCell id="o2Bm0cEtrIqw7_hYOtmg-10" value="" style="whiteSpace=wrap;html=1;aspect=fixed;fillColor=#fff2cc;strokeColor=#d6b656;" vertex="1" parent="1">
          <mxGeometry x="273" y="520" width="60" height="60" as="geometry" />
        </mxCell>
        <mxCell id="o2Bm0cEtrIqw7_hYOtmg-11" value="Script&lt;br&gt;Scraper" style="text;html=1;align=center;verticalAlign=middle;resizable=0;points=[];autosize=1;strokeColor=none;fillColor=none;" vertex="1" parent="1">
          <mxGeometry x="268" y="530" width="70" height="40" as="geometry" />
        </mxCell>
        <mxCell id="o2Bm0cEtrIqw7_hYOtmg-16" value="" style="shape=image;verticalLabelPosition=bottom;labelBackgroundColor=default;verticalAlign=top;aspect=fixed;imageAspect=0;image=data:image/svg+xml,PHN2ZyB4bWxucz0iaHR0cDovL3d3dy53My5vcmcvMjAwMC9zdmciIHZpZXdCb3g9IjAgMCAxOCAxOCIgaGVpZ2h0PSIxOCIgd2lkdGg9IjE4IiBpZD0iYjM4OGU5NDQtNTUwOS00OWM5LTg0ZDctZjM4YmZmYTk5NWIyIj48ZGVmcz48bGluZWFyR3JhZGllbnQgZ3JhZGllbnRVbml0cz0idXNlclNwYWNlT25Vc2UiIHkyPSI4LjA5IiB4Mj0iNS4yMyIgeTE9IjE3LjQ1IiB4MT0iNS4yMyIgaWQ9ImE5OTdlMjAzLTFkN2QtNGNiOS1iMTMxLTVkYzQ0ZTAyOWI0NiI+PHN0b3Agc3RvcC1jb2xvcj0iIzE5ODhkOSIgb2Zmc2V0PSIwIi8+PHN0b3Agc3RvcC1jb2xvcj0iIzU0YWVmMCIgb2Zmc2V0PSIwLjkiLz48L2xpbmVhckdyYWRpZW50PjxsaW5lYXJHcmFkaWVudCBncmFkaWVudFVuaXRzPSJ1c2VyU3BhY2VPblVzZSIgeTI9IjAuNTUiIHgyPSIxMS41IiB5MT0iMTIuNDUiIHgxPSIxMS41IiBpZD0iZTEyMmU5ZDgtYWVlNS00ZjFhLWE2MGUtYjFlYWUzNTVkYWE1Ij48c3RvcCBzdG9wLWNvbG9yPSIjMTk4YWIzIiBvZmZzZXQ9IjAiLz48c3RvcCBzdG9wLWNvbG9yPSIjMTk4YmI0IiBvZmZzZXQ9IjAuMDEiLz48c3RvcCBzdG9wLWNvbG9yPSIjMjdiMmQ3IiBvZmZzZXQ9IjAuNDQiLz48c3RvcCBzdG9wLWNvbG9yPSIjMmZjYmVkIiBvZmZzZXQ9IjAuNzkiLz48c3RvcCBzdG9wLWNvbG9yPSIjMzJkNGY1IiBvZmZzZXQ9IjEiLz48L2xpbmVhckdyYWRpZW50PjwvZGVmcz48dGl0bGU+SWNvbi1tYW5hZ2UtMzA3PC90aXRsZT48cGF0aCBmaWxsPSJ1cmwoI2E5OTdlMjAzLTFkN2QtNGNiOS1iMTMxLTVkYzQ0ZTAyOWI0NikiIGQ9Ik01LjU5LDEzLjEzSDkuOTF2NC4zMkg1LjU5Wk0xLjE1LDE3LjQ1SDQuODdWMTMuMTNILjU1djMuNzJBLjYuNiwwLDAsMCwxLjE1LDE3LjQ1Wm0tLjYtNUg0Ljg3VjguMDlILjU1WiIvPjxwYXRoIGZpbGw9InVybCgjZTEyMmU5ZDgtYWVlNS00ZjFhLWE2MGUtYjFlYWUzNTVkYWE1KSIgZmlsbC1ydWxlPSJldmVub2RkIiBkPSJNMTEuNS41NWE1Ljg5LDUuODksMCwwLDEsNS45NSw2LDUuODksNS44OSwwLDAsMS01Ljk1LDUuOTVINS41NVY2LjVBNS44OSw1Ljg5LDAsMCwxLDExLjUuNTVaIi8+PHJlY3QgZmlsbD0iI2ZmZiIgaGVpZ2h0PSI0LjA4IiB3aWR0aD0iMS4zNiIgeT0iNS42NSIgeD0iNy41OSIvPjxyZWN0IGZpbGw9IiNmZmYiIGhlaWdodD0iMi43MiIgd2lkdGg9IjEuMzYiIHk9IjcuMDEiIHg9IjEwLjMxIi8+PHJlY3QgZmlsbD0iI2ZmZiIgaGVpZ2h0PSI1LjQ0IiB3aWR0aD0iMS4zNiIgeT0iNC4yOSIgeD0iMTMuMDMiLz48L3N2Zz4=;" vertex="1" parent="1">
          <mxGeometry x="387" y="440" width="38" height="38" as="geometry" />
        </mxCell>
        <mxCell id="o2Bm0cEtrIqw7_hYOtmg-18" value="" style="shape=image;verticalLabelPosition=bottom;labelBackgroundColor=default;verticalAlign=top;aspect=fixed;imageAspect=0;image=data:image/svg+xml,PHN2ZyB4bWxucz0iaHR0cDovL3d3dy53My5vcmcvMjAwMC9zdmciIHZpZXdCb3g9IjAgMCAxOCAxOCIgaGVpZ2h0PSIxOCIgd2lkdGg9IjE4IiBpZD0iYTY4NWNjOGMtMzJiYS00ZDU0LTkxZGEtM2ExMjVjYjU4ZGVkIj48dGl0bGU+SWNvbi1nZW5lcmFsLTc8L3RpdGxlPjxnPjxnPjxwYXRoIGZpbGw9IiM5NDk0OTQiIGQ9Ik0uNSwxNS4wOGEuMTYuMTYsMCwwLDAsLjA4LjE0bDEuMTYuNjVMMy43LDE3YS4xNy4xNywwLDAsMCwuMjMtLjA2bC42Ni0xLjEyYS4xNi4xNiwwLDAsMC0uMDYtLjIxbC0yLjMtMS4zYS4xNy4xNywwLDAsMS0uMDgtLjE0VjMuODVhLjE2LjE2LDAsMCwxLC4wOC0uMTRsMi4zLTEuM2EuMTYuMTYsMCwwLDAsLjA2LS4yMUwzLjkzLDEuMDhBLjE3LjE3LDAsMCwwLDMuNywxTDEuNzgsMi4xMWwtMS4yLjY3YS4xNi4xNiwwLDAsMC0uMDguMTRWMTUuMDhaIi8+PHBhdGggZmlsbD0iI2EzYTNhMyIgZD0iTTIuMTQsMy43N2wuMDYtLjA2LDIuMy0xLjNhLjE0LjE0LDAsMCwwLC4wNi0uMjFMMy45LDEuMDhBLjE1LjE1LDAsMCwwLDMuNjgsMUwxLjc1LDIuMTEuNTYsMi43OHMtLjA1LDAtLjA2LjA2bC45LjUxWiIvPjxwYXRoIGZpbGw9IiNhM2EzYTMiIGQ9Ik00LjUsMTUuNTlsLTIuMy0xLjNhLjIyLjIyLDAsMCwxLS4wNy0uMDlsLTEuNjIsMSwuMDUsMCwxLjE1LjY1LDIsMS4xMWEuMTUuMTUsMCwwLDAsLjIyLS4wNmwuNjYtMS4xMkEuMTQuMTQsMCwwLDAsNC41LDE1LjU5WiIvPjwvZz48cGF0aCBmaWxsPSIjOTQ5NDk0IiBkPSJNMTcuNSwxNS4wOGEuMTYuMTYsMCwwLDEtLjA4LjE0bC0xLjE2LjY1TDE0LjMsMTdhLjE3LjE3LDAsMCwxLS4yMy0uMDZsLS42Ni0xLjEyYS4xNi4xNiwwLDAsMSwuMDYtLjIxbDIuMy0xLjNhLjE3LjE3LDAsMCwwLC4wOC0uMTRWMy44NWEuMTYuMTYsMCwwLDAtLjA4LS4xNGwtMi4zLTEuM2EuMTYuMTYsMCwwLDEtLjA2LS4yMWwuNjYtMS4xMkEuMTcuMTcsMCwwLDEsMTQuMywxbDEuOTIsMS4wOSwxLjIuNjdhLjE2LjE2LDAsMCwxLC4wOC4xNFYxNS4wOFoiLz48cGF0aCBmaWxsPSIjYTNhM2EzIiBkPSJNMTUuODYsMy43N2wtLjA2LS4wNi0yLjMtMS4zYS4xNC4xNCwwLDAsMS0uMDYtLjIxbC42Ni0xLjEyQS4xNS4xNSwwLDAsMSwxNC4zMiwxbDEuOTMsMS4wOSwxLjE5LjY3czAsMCwuMDYuMDZsLS45LjUxWiIvPjxwYXRoIGZpbGw9IiNhM2EzYTMiIGQ9Ik0xMy41LDE1LjU5bDIuMy0xLjNhLjIyLjIyLDAsMCwwLC4wNy0uMDlsMS42MiwxLDAsMC0xLjE1LjY1LTIsMS4xMWEuMTUuMTUsMCwwLDEtLjIyLS4wNmwtLjY2LTEuMTJBLjE0LjE0LDAsMCwxLDEzLjUsMTUuNTlaIi8+PHBvbHlnb24gZmlsbD0iIzMyYmVkZCIgcG9pbnRzPSIxNC4zMSA1LjkzIDE0LjMxIDEyLjA3IDguOTkgMTUuMTYgOC45OSA5LjAxIDE0LjMxIDUuOTMiLz48cG9seWdvbiBmaWxsPSIjOWNlYmZmIiBwb2ludHM9IjE0LjMxIDUuOTMgOSA5LjAyIDMuNjggNS45MyA5IDIuODQgMTQuMzEgNS45MyIvPjxwb2x5Z29uIGZpbGw9IiM1MGU2ZmYiIHBvaW50cz0iOC45OSA5LjAyIDguOTkgMTUuMTYgMy42OCAxMi4wNyAzLjY4IDUuOTMgOC45OSA5LjAyIi8+PHBvbHlnb24gZmlsbD0iIzljZWJmZiIgcG9pbnRzPSIzLjY4IDEyLjA3IDguOTkgOS4wMSA4Ljk5IDE1LjE2IDMuNjggMTIuMDciLz48cG9seWdvbiBmaWxsPSIjNTBlNmZmIiBwb2ludHM9IjE0LjMxIDEyLjA3IDguOTkgOS4wMSA4Ljk5IDE1LjE2IDE0LjMxIDEyLjA3Ii8+PC9nPjwvc3ZnPg==;" vertex="1" parent="1">
          <mxGeometry x="140" y="418" width="18" height="18" as="geometry" />
        </mxCell>
        <mxCell id="o2Bm0cEtrIqw7_hYOtmg-19" value="Resource Group" style="text;html=1;align=center;verticalAlign=middle;resizable=0;points=[];autosize=1;strokeColor=none;fillColor=none;" vertex="1" parent="1">
          <mxGeometry x="158" y="414" width="110" height="30" as="geometry" />
        </mxCell>
        <mxCell id="o2Bm0cEtrIqw7_hYOtmg-20" value="Log&lt;br&gt;Analytics&lt;br&gt;Workspace" style="text;html=1;align=center;verticalAlign=middle;resizable=0;points=[];autosize=1;strokeColor=none;fillColor=none;" vertex="1" parent="1">
          <mxGeometry x="360" y="480" width="80" height="60" as="geometry" />
        </mxCell>
        <mxCell id="o2Bm0cEtrIqw7_hYOtmg-22" value="" style="image;aspect=fixed;html=1;points=[];align=center;fontSize=12;image=img/lib/azure2/general/Browser.svg;" vertex="1" parent="1">
          <mxGeometry x="115.5" y="664" width="152.5" height="122" as="geometry" />
        </mxCell>
        <mxCell id="o2Bm0cEtrIqw7_hYOtmg-23" value="Website&lt;br&gt;Zdrowy Catering" style="text;html=1;align=center;verticalAlign=middle;resizable=0;points=[];autosize=1;strokeColor=none;fillColor=none;" vertex="1" parent="1">
          <mxGeometry x="136.75" y="720" width="110" height="40" as="geometry" />
        </mxCell>
        <mxCell id="o2Bm0cEtrIqw7_hYOtmg-33" style="edgeStyle=orthogonalEdgeStyle;rounded=0;orthogonalLoop=1;jettySize=auto;html=1;startArrow=block;startFill=1;" edge="1" parent="1" source="o2Bm0cEtrIqw7_hYOtmg-32" target="o2Bm0cEtrIqw7_hYOtmg-10">
          <mxGeometry relative="1" as="geometry" />
        </mxCell>
        <mxCell id="o2Bm0cEtrIqw7_hYOtmg-32" value="Telegram API" style="shape=image;verticalLabelPosition=bottom;labelBackgroundColor=default;verticalAlign=top;aspect=fixed;imageAspect=0;image=data:image/svg+xml,PHN2ZyB4bWxuczp4bGluaz0iaHR0cDovL3d3dy53My5vcmcvMTk5OS94bGluayIgeG1sbnM9Imh0dHA6Ly93d3cudzMub3JnLzIwMDAvc3ZnIiB2aWV3Qm94PSIwIDAgMjQwIDI0MCIgZGF0YS1uYW1lPSJMaXZlbGxvIDEiIGlkPSJMaXZlbGxvXzEiPjxkZWZzPjxsaW5lYXJHcmFkaWVudCBncmFkaWVudFVuaXRzPSJ1c2VyU3BhY2VPblVzZSIgeDI9IjEyMCIgeTE9IjI0MCIgeDE9IjEyMCIgaWQ9ImxpbmVhci1ncmFkaWVudCI+PHN0b3Agc3RvcC1jb2xvcj0iIzFkOTNkMiIgb2Zmc2V0PSIwIi8+PHN0b3Agc3RvcC1jb2xvcj0iIzM4YjBlMyIgb2Zmc2V0PSIxIi8+PC9saW5lYXJHcmFkaWVudD48L2RlZnM+PHRpdGxlPlRlbGVncmFtX2xvZ288L3RpdGxlPjxjaXJjbGUgZmlsbD0idXJsKCNsaW5lYXItZ3JhZGllbnQpIiByPSIxMjAiIGN5PSIxMjAiIGN4PSIxMjAiLz48cGF0aCBmaWxsPSIjYzhkYWVhIiBkPSJNODEuMjI5LDEyOC43NzJsMTQuMjM3LDM5LjQwNnMxLjc4LDMuNjg3LDMuNjg2LDMuNjg3LDMwLjI1NS0yOS40OTIsMzAuMjU1LTI5LjQ5MmwzMS41MjUtNjAuODlMODEuNzM3LDExOC42WiIvPjxwYXRoIGZpbGw9IiNhOWM2ZDgiIGQ9Ik0xMDAuMTA2LDEzOC44NzhsLTIuNzMzLDI5LjA0NnMtMS4xNDQsOC45LDcuNzU0LDAsMTcuNDE1LTE1Ljc2MywxNy40MTUtMTUuNzYzIi8+PHBhdGggZmlsbD0iI2ZmZiIgZD0iTTgxLjQ4NiwxMzAuMTc4LDUyLjIsMTIwLjYzNnMtMy41LTEuNDItMi4zNzMtNC42NGMuMjMyLS42NjQuNy0xLjIyOSwyLjEtMi4yLDYuNDg5LTQuNTIzLDEyMC4xMDYtNDUuMzYsMTIwLjEwNi00NS4zNnMzLjIwOC0xLjA4MSw1LjEtLjM2MmEyLjc2NiwyLjc2NiwwLDAsMSwxLjg4NSwyLjA1NSw5LjM1Nyw5LjM1NywwLDAsMSwuMjU0LDIuNTg1Yy0uMDA5Ljc1Mi0uMSwxLjQ0OS0uMTY5LDIuNTQyLS42OTIsMTEuMTY1LTIxLjQsOTQuNDkzLTIxLjQsOTQuNDkzcy0xLjIzOSw0Ljg3Ni01LjY3OCw1LjA0M0E4LjEzLDguMTMsMCwwLDEsMTQ2LjEsMTcyLjVjLTguNzExLTcuNDkzLTM4LjgxOS0yNy43MjctNDUuNDcyLTMyLjE3N2ExLjI3LDEuMjcsMCwwLDEtLjU0Ni0uOWMtLjA5My0uNDY5LjQxNy0xLjA1LjQxNy0xLjA1czUyLjQyNi00Ni42LDUzLjgyMS01MS40OTJjLjEwOC0uMzc5LS4zLS41NjYtLjg0OC0uNC0zLjQ4MiwxLjI4MS02My44NDQsMzkuNC03MC41MDYsNDMuNjA3QTMuMjEsMy4yMSwwLDAsMSw4MS40ODYsMTMwLjE3OFoiLz48L3N2Zz4=;" vertex="1" parent="1">
          <mxGeometry x="307" y="685" width="80" height="80" as="geometry" />
        </mxCell>
      </root>
    </mxGraphModel>
  </diagram>
</mxfile>
